<svg xmlns="http://www.w3.org/2000/svg" width="556.664" height="578.447" viewBox="0 0 556.664 578.447">
  <g id="Group_2" data-name="Group 2" transform="translate(-356.239 -291)">
    <g id="Path_5" data-name="Path 5" transform="translate(506.336 294.153) rotate(51)" fill="#006724">
      <path d="M 293.833984375 183.4718170166016 C 185.5530700683594 183.4718170166016 101.519401550293 155.2073211669922 58.98223495483398 128.7560729980469 L 50.97581481933594 123.7984085083008 C 21.68914985656738 105.7044067382813 9.792566299438477 97.85890960693359 9.49739933013916 85.24799346923828 C 9.042983055114746 65.83115386962891 9.494400024414063 33.45965576171875 9.498983383178711 33.13490676879883 C 9.499982833862305 19.41148948669434 16.85848236083984 4.745156764984131 28.74656677246094 4.745156764984131 C 31.72006607055664 4.925240039825439 114.3609008789063 9.499990463256836 148.8889007568359 9.499990463256836 C 151.1654052734375 9.667823791503906 158.8867340087891 14.51507377624512 158.9533996582031 19.74132347106934 L 158.9526519775391 67.39515686035156 C 158.9526519775391 90.37682342529297 249.9485626220703 111.8879928588867 291.28857421875 111.8879928588867 C 333.7765808105469 111.8879928588867 427.29931640625 90.09457397460938 427.29931640625 66.81140899658203 L 427.29931640625 17.73649024963379 C 427.355224609375 14.05240631103516 428.6484069824219 9.49232292175293 434.4854736328125 9.49232292175293 C 447.2595520019531 9.232239723205566 550.6106567382813 4.920323371887207 555.00439453125 4.7369065284729 C 566.5069580078125 4.745156764984131 574.5 19.35482406616211 574.5 32.9999885559082 L 574.5 85.47032165527344 C 574.5 93.23941040039063 558.02197265625 106.0918197631836 537.16015625 122.363655090332 L 531.8406372070313 126.5164031982422 C 503.6804809570313 148.5368194580078 414.1628112792969 183.4718170166016 293.833984375 183.4718170166016 Z" stroke="none"/>
      <path d="M 555.4006958007813 14.22866821289063 C 551.1357421875 14.40676879882813 453.7085571289063 18.47140502929688 436.79931640625 18.96040344238281 L 436.79931640625 66.8114013671875 C 436.79931640625 103.8350372314453 320.0850524902344 121.3880386352539 291.2886047363281 121.3880386352539 C 263.2194213867188 121.3880386352539 149.4526062011719 104.0228500366211 149.4526062011719 67.39512634277344 L 149.4541320800781 20.83251953125 C 148.9193725585938 20.1978759765625 147.8793029785156 19.40081787109375 147.056884765625 18.99603271484375 C 112.6769409179688 18.84986877441406 37.33538818359375 14.74786376953125 28.439208984375 14.25724792480469 C 23.62847900390625 14.63214111328125 18.99993896484375 23.73756408691406 18.998046875 33.26994323730469 C 18.993408203125 33.59284973144531 18.54449462890625 65.785400390625 18.99481201171875 85.02567291259766 C 19.1650390625 92.30167388916016 29.27008056640625 99.22121429443359 55.9693603515625 115.7166748046875 L 63.998779296875 120.6886749267578 C 105.4221496582031 146.4474029541016 187.5530700683594 173.9717559814453 293.833984375 173.9717559814453 C 416.157958984375 173.9717559814453 503.0657043457031 136.9578552246094 525.9887084960938 119.0328521728516 L 531.3174438476563 114.8728561401367 C 546.32958984375 103.1636734008789 563.3447875976563 89.89221954345703 565 85.47030639648438 L 565 33.00003051757813 C 565 23.53494262695313 559.8526000976563 14.24522399902344 555.4006958007813 14.22866821289063 M 28.74658203125 -4.754776000976563 C 28.74658203125 -4.754776000976563 114.227783203125 3.0517578125e-05 148.8888854980469 3.0517578125e-05 C 156.1273498535156 0.47003173828125 168.3136901855469 8.739395141601563 168.4526062011719 19.62004089355469 C 168.4526062011719 31.62649536132813 168.4526062011719 52.17376708984375 168.4526062011719 67.39512634277344 C 168.4526062011719 77.69512939453125 239.9250793457031 102.3880386352539 291.2886047363281 102.3880386352539 C 342.8232421875 102.3880386352539 417.79931640625 77.52776336669922 417.79931640625 66.8114013671875 C 417.79931640625 48.52621459960938 417.79931640625 22.07539367675781 417.79931640625 17.73649597167969 C 417.96435546875 6.64678955078125 425.0534057617188 -0.0072479248046875 434.4854431152344 -0.00762939453125 C 434.6703491210938 -0.00762939453125 434.8553161621094 -0.0050811767578125 435.0419921875 3.0517578125e-05 C 447.0945434570313 -0.26641845703125 554.608154296875 -4.754776000976563 554.608154296875 -4.754776000976563 C 572.83349609375 -4.754776000976563 584 14.77458190917969 584 33.00003051757813 C 584 33.00003051757813 584 72.24021911621094 584 85.47030639648438 C 584 98.70049285888672 566.9127197265625 111.150764465332 537.692626953125 134.0000305175781 C 508.4725341796875 156.8492126464844 416.1102294921875 192.9717559814453 293.833984375 192.9717559814453 C 171.5577087402344 192.9717559814453 89.21633911132813 158.7438507080078 53.96551513671875 136.823486328125 C 18.714599609375 114.9031295776367 0.4638671875 105.290397644043 0 85.47030639648438 C -0.4638671875 65.65021514892578 0 33.00003051757813 0 33.00003051757813 C 0 14.77458190917969 10.52117919921875 -4.754776000976563 28.74658203125 -4.754776000976563 Z" stroke="none" fill="#006724"/>
    </g>
    <path id="Path_6" data-name="Path 6" d="M0,0S50.285-.012,95.1,49.785,135,150,135,150" transform="translate(684.918 403.274) rotate(3)" fill="none" stroke="#006724" stroke-width="27"/>
    <path id="Path_7" data-name="Path 7" d="M0,0S84.419,10.344,148.886,76.386s69.231,165.965,69.231,165.965" transform="translate(680.918 319.274) rotate(3)" fill="none" stroke="#006724" stroke-width="27"/>
  </g>
</svg>
