<?xml version="1.0" standalone="no"?>
<!DOCTYPE svg PUBLIC "-//W3C//DTD SVG 20010904//EN"
 "http://www.w3.org/TR/2001/REC-SVG-20010904/DTD/svg10.dtd">
<svg version="1.0" xmlns="http://www.w3.org/2000/svg"
 width="218.000000pt" height="218.000000pt" viewBox="0 0 218.000000 218.000000"
 preserveAspectRatio="xMidYMid meet">
<metadata>
Created by potrace 1.11, written by Peter Selinger 2001-2013
</metadata>
<g transform="translate(0.000000,218.000000) scale(0.100000,-0.100000)"
fill="#000000" stroke="none">
<path d="M965 2139 c-17 -7 -18 -8 -2 -8 9 -1 17 -5 17 -9 0 -5 14 -8 30 -8
32 0 35 3 20 26 -6 10 -10 11 -10 3 0 -7 -5 -13 -11 -13 -5 0 -8 4 -5 8 6 11
-14 11 -39 1z"/>
<path d="M1044 2138 c3 -10 3 -25 -1 -34 -5 -13 -8 -13 -15 -2 -8 10 -9 10 -5
-2 2 -8 9 -15 15 -15 7 0 11 3 10 6 -5 10 24 39 37 39 7 0 16 -7 19 -16 3 -8
2 -12 -4 -9 -6 3 -10 2 -10 -4 0 -5 3 -11 8 -14 4 -2 1 -2 -7 0 -8 2 -11 -2
-8 -10 3 -8 -1 -14 -8 -14 -8 0 -11 7 -7 16 5 13 3 14 -10 3 -8 -7 -22 -10
-31 -6 -10 4 -15 0 -14 -13 1 -11 -4 -18 -15 -17 -10 1 -16 -5 -15 -17 1 -11
7 -19 15 -19 7 0 10 4 7 10 -4 6 1 7 11 3 10 -4 15 -2 11 3 -8 13 10 41 20 31
4 -5 3 -11 -2 -15 -12 -8 -18 -32 -9 -32 4 0 12 7 18 15 8 11 15 12 26 4 13
-9 12 -10 -2 -5 -10 3 -18 1 -18 -4 0 -6 9 -10 20 -10 11 0 20 -4 20 -8 0 -4
-9 -8 -20 -8 -11 0 -20 3 -20 6 0 3 -11 6 -25 6 -21 2 -24 -1 -14 -12 7 -8 18
-13 26 -10 7 3 13 0 13 -7 0 -9 2 -9 9 1 6 10 10 10 19 -1 10 -12 6 -14 -25
-10 -35 4 -36 3 -18 -10 10 -8 26 -13 35 -10 10 3 9 0 -4 -11 -10 -8 -23 -13
-28 -10 -4 3 -7 -5 -5 -17 2 -13 9 -25 15 -27 7 -2 10 3 6 12 -4 11 0 16 12
16 15 0 16 -2 5 -9 -11 -7 -11 -9 0 -14 9 -4 10 -6 2 -6 -7 -1 -11 -7 -9 -13
1 -7 1 -10 -1 -5 -3 4 -9 7 -14 7 -6 0 -7 -6 -3 -12 4 -7 -2 -5 -13 5 -11 9
-23 17 -28 17 -4 0 -2 -8 6 -17 8 -11 4 -10 -10 3 -21 19 -26 20 -73 8 -28 -8
-57 -19 -65 -26 -14 -11 -15 -7 -10 32 l6 45 -12 -49 c-12 -48 -13 -48 -31
-30 -20 20 -41 22 -101 9 -74 -15 -120 -1 -90 29 9 9 12 16 6 16 -16 0 -36
-43 -22 -48 6 -2 11 -8 11 -13 0 -6 -4 -8 -9 -5 -9 6 -82 -21 -91 -33 -3 -4
-20 -13 -37 -20 -35 -14 -41 -26 -20 -35 8 -3 7 -8 -5 -16 -25 -16 -22 -30 6
-30 22 0 24 -4 23 -40 -1 -22 -3 -40 -5 -40 -2 0 -17 9 -33 21 -16 11 -29 16
-29 10 0 -6 4 -11 9 -11 4 0 22 -14 39 -30 l32 -30 -40 0 c-39 0 -90 -17 -90
-30 0 -4 12 -5 27 -2 l28 5 -25 -21 -25 -22 50 2 c28 0 58 -2 68 -7 15 -6 16
-4 8 16 -5 15 -20 27 -37 31 -27 6 -27 6 6 5 28 -2 36 -6 38 -25 2 -14 8 -20
15 -16 9 5 9 4 0 -6 -9 -10 -9 -20 4 -44 13 -24 13 -31 2 -35 -13 -4 -40 -31
-71 -69 -15 -19 -16 -22 -3 -22 9 0 31 7 50 14 49 21 44 4 -5 -18 -32 -14 -43
-15 -62 -5 -13 7 -24 12 -26 11 -19 -12 -80 -32 -97 -32 -26 0 -41 -25 -22
-37 7 -4 1 -10 -18 -14 -48 -12 -112 -38 -93 -39 10 0 15 -6 13 -13 -2 -6 -6
-28 -9 -47 l-4 -35 26 31 26 32 15 -31 c25 -48 38 -44 52 17 9 40 17 56 28 55
10 0 12 -2 4 -6 -24 -9 -13 -20 17 -15 32 5 64 -14 53 -31 -4 -6 2 -8 15 -5
27 7 41 -11 18 -24 -9 -5 -16 -17 -16 -28 0 -15 7 -18 40 -16 28 2 40 -1 40
-10 0 -8 -3 -14 -7 -15 -83 -7 -119 -25 -135 -68 -7 -20 -6 -23 11 -18 15 4
18 0 15 -19 -14 -82 -15 -77 19 -70 17 3 33 10 37 14 3 4 14 14 24 22 18 14
18 13 11 -10 -4 -14 -16 -36 -27 -49 -10 -13 -16 -27 -12 -30 3 -3 10 2 15 12
6 9 24 24 42 33 18 9 34 20 37 24 12 16 58 20 70 5 10 -12 60 -22 60 -12 0 1
-4 17 -9 35 -11 37 -3 41 82 40 38 -1 47 -4 47 -19 0 -9 6 -19 12 -21 10 -4
10 -10 2 -29 -12 -25 0 -79 17 -79 8 0 14 31 10 53 -1 4 10 0 23 -9 14 -8 34
-13 44 -10 12 4 32 -4 58 -25 50 -40 52 -41 34 -37 -8 2 -20 10 -27 18 -10 13
-11 12 -9 -5 2 -11 10 -19 20 -19 9 1 16 -3 16 -10 0 -6 5 -3 11 6 7 13 15 15
27 9 9 -5 40 -19 67 -31 28 -13 73 -44 100 -71 28 -26 76 -59 108 -73 51 -23
57 -29 57 -56 0 -40 -26 -88 -98 -180 -59 -76 -176 -174 -222 -185 -14 -3 -54
-23 -90 -45 -68 -39 -163 -74 -239 -85 -78 -12 -20 -28 78 -22 67 4 115 15
217 51 81 29 150 46 180 47 59 1 225 -8 314 -17 97 -10 481 -11 519 -1 34 8
35 19 3 24 -9 1 -55 5 -102 8 -47 3 -94 7 -105 9 -11 2 -65 7 -120 11 -110 7
-153 17 -204 48 -70 42 -70 100 1 240 38 76 41 87 40 156 -2 89 12 118 73 148
l43 21 23 -24 c28 -30 35 -30 42 -2 4 15 -1 30 -13 43 -26 28 -25 39 5 59 37
24 62 20 69 -10 7 -26 7 -26 25 -8 10 11 17 22 14 27 -7 12 12 8 25 -5 7 -7
12 -20 12 -29 0 -9 7 -22 15 -29 18 -15 20 -1 4 33 -11 24 -62 61 -71 51 -3
-3 -8 2 -11 9 -3 9 4 19 20 26 22 10 28 8 50 -14 14 -13 29 -22 34 -20 4 3 15
-7 23 -22 8 -15 15 -25 16 -22 1 15 -24 76 -38 92 -23 26 -9 30 21 6 16 -12
27 -15 27 -9 0 7 8 10 20 7 17 -4 18 -3 8 16 -6 12 -21 30 -32 41 l-21 18 25
-7 c27 -8 27 -8 53 -6 11 1 15 6 11 12 -3 6 0 15 7 20 11 7 10 9 -3 9 -10 0
-15 5 -12 13 12 31 -62 51 -103 29 -19 -10 -23 -10 -23 1 0 8 -9 22 -20 32
-11 10 -20 23 -20 28 0 6 -10 24 -23 41 -27 36 -59 97 -53 103 2 2 11 -3 20
-12 9 -9 22 -13 28 -9 7 4 10 4 6 -1 -4 -4 3 -18 17 -31 14 -13 21 -25 16 -29
-5 -3 -12 1 -14 7 -3 7 -6 0 -6 -15 -1 -26 0 -27 15 -13 12 12 20 13 35 6 11
-6 23 -8 28 -6 5 3 12 -1 15 -10 6 -17 -6 -38 -34 -61 -8 -7 -10 -13 -4 -13 5
0 16 6 22 12 8 8 15 9 20 3 4 -6 27 -10 52 -10 37 1 44 4 42 18 -3 21 14 21
48 2 34 -20 39 -19 33 8 -10 41 -23 49 -49 32 -26 -17 -54 -20 -54 -6 0 5 9 7
20 4 30 -8 25 3 -30 57 -27 27 -50 52 -50 55 0 9 41 5 60 -5 18 -10 18 -7 -3
32 -23 44 -49 54 -96 36 -13 -5 -26 -6 -29 -3 -9 8 45 55 63 55 18 0 19 5 5
30 -12 23 -40 16 -40 -10 0 -11 -4 -22 -10 -25 -6 -3 -7 1 -4 9 4 10 1 16 -9
16 -10 0 -15 8 -14 20 1 12 7 18 14 16 7 -3 13 -2 13 3 0 5 14 11 31 15 38 7
37 39 -2 44 -20 2 -33 15 -54 53 -33 62 -88 100 -144 101 -23 0 -41 3 -41 6 0
9 43 42 55 42 25 0 65 41 65 67 0 24 -2 25 -39 20 -33 -4 -43 -1 -60 19 -23
26 -17 33 31 40 20 2 44 -4 65 -17 l33 -21 0 23 0 22 19 -21 c23 -27 31 -28
31 -4 0 34 -37 57 -97 58 -37 1 -56 -3 -60 -12 -5 -13 -49 -27 -93 -29 -14 0
-40 -9 -58 -18 -18 -10 -37 -15 -42 -12 -18 11 0 25 33 26 27 0 29 2 12 9 -14
6 -15 9 -5 10 9 0 3 7 -13 16 -21 11 -44 14 -90 9 -90 -8 -121 -7 -129 6 -2 2
-1 3 1 2 2 -2 11 3 19 10 13 9 14 9 8 0 -4 -8 -1 -13 9 -13 9 0 14 4 11 8 -3
5 1 9 9 9 8 0 12 -4 9 -9 -3 -4 0 -8 6 -8 6 0 10 8 8 18 -2 9 -9 16 -15 15 -6
-1 -10 5 -9 15 1 19 -34 18 -45 0 -4 -6 -9 -5 -12 3 -5 11 -8 10 -17 -4 -12
-18 -30 -15 -30 6 0 8 3 8 9 -1 6 -11 10 -10 15 3 3 10 12 15 21 11 8 -3 15
-1 15 5 0 6 4 8 9 4 5 -3 13 0 17 6 4 7 3 9 -3 6 -6 -4 -13 0 -17 8 -3 8 -12
15 -20 15 -10 0 -13 -6 -10 -15 4 -8 1 -16 -5 -16 -6 -1 -17 -2 -23 -3 -7 0
-14 -10 -16 -21 -2 -11 -9 -24 -14 -30 -7 -7 -8 -3 -4 11 5 17 3 22 -11 20
-12 -1 -17 5 -15 17 3 15 0 16 -17 5 -20 -12 -19 -13 7 -30 15 -10 22 -18 17
-18 -6 0 -16 5 -22 11 -8 8 -17 8 -32 0 -14 -8 -27 -9 -40 -2 -10 6 -21 8 -24
5 -9 -10 -2 20 12 44 7 13 15 21 18 18 7 -7 43 23 43 36 0 5 -4 7 -8 4 -4 -2
-14 0 -22 6 -13 8 -12 9 1 5 9 -3 22 0 28 6 15 15 32 -9 23 -32 -5 -14 -4 -14
11 -2 13 11 15 17 6 28 -10 11 -8 12 5 7 10 -4 15 -13 12 -21 -3 -7 0 -13 7
-12 6 1 19 1 27 0 13 -1 13 -3 1 -10 -9 -6 -22 -6 -32 -1 -17 9 -29 4 -29 -12
0 -5 5 -6 10 -3 6 4 16 2 23 -3 8 -7 23 -4 47 10 19 10 27 17 18 14 -10 -3
-18 -1 -18 4 0 6 -7 10 -15 10 -8 0 -15 4 -15 9 0 9 -70 40 -100 44 -8 2 -19
5 -25 8 -5 3 -28 5 -50 5 -22 -1 -44 4 -48 9 -5 6 -7 3 -3 -7z m326 -168 c0
-5 -2 -10 -4 -10 -3 0 -8 5 -11 10 -3 6 -1 10 4 10 6 0 11 -4 11 -10z m-200
-31 c0 -5 4 -8 8 -5 5 3 9 -1 9 -9 0 -8 -4 -12 -9 -9 -4 3 -8 0 -8 -7 0 -7 -6
-4 -14 6 -14 20 -12 35 5 35 5 0 9 -5 9 -11z m-20 -34 c0 -12 -19 -12 -23 0
-4 9 -1 12 9 8 7 -3 14 -7 14 -8z m75 -13 c-3 -3 -11 0 -18 7 -9 10 -8 11 6 5
10 -3 15 -9 12 -12z m310 7 c4 -5 -5 -9 -19 -9 -14 0 -26 4 -26 8 0 11 39 12
45 1z m-195 -19 c0 -5 -2 -10 -4 -10 -3 0 -8 5 -11 10 -3 6 -1 10 4 10 6 0 11
-4 11 -10z m-341 -24 c9 -10 8 -15 -3 -19 -10 -4 -13 -1 -9 9 5 14 3 14 -15 3
-19 -12 -19 -14 -4 -26 9 -7 13 -13 7 -13 -5 0 -3 -5 5 -11 13 -9 13 -10 -2
-6 -9 3 -19 1 -21 -6 -3 -9 -7 -9 -17 0 -10 10 -19 9 -41 -4 -16 -9 -32 -14
-36 -10 -10 11 50 65 81 73 14 3 29 10 32 15 7 12 10 11 23 -5z m696 -62 c-8
-13 -16 -34 -16 -46 -1 -16 -4 -12 -9 12 -6 30 -8 31 -9 9 -1 -25 -4 -26 -46
-25 -39 1 -43 3 -28 14 16 11 16 12 0 12 -24 0 -21 11 13 44 20 18 37 26 50
23 11 -3 20 0 20 5 0 6 9 3 20 -7 18 -17 19 -20 5 -41z m-927 27 c3 -10 0 -12
-11 -8 -9 3 -21 -1 -28 -10 -11 -13 -10 -17 4 -28 9 -6 14 -15 10 -18 -12 -13
-28 -6 -46 18 -17 23 -16 25 5 45 25 23 59 23 66 1z m-84 -72 l18 -31 -26 17
c-14 10 -23 22 -19 28 4 6 -2 8 -15 5 -12 -4 -22 -2 -22 3 0 5 10 9 23 9 15 0
29 -11 41 -31z m832 -38 c-4 -6 -14 -7 -23 -4 -15 6 -14 7 3 13 22 9 29 6 20
-9z m-581 -10 c-3 -6 -11 -11 -17 -11 -6 0 -6 6 2 15 14 17 26 13 15 -4z
m-354 -14 c-1 -12 -15 -9 -19 4 -3 6 1 10 8 8 6 -3 11 -8 11 -12z m243 1 c-3
-4 -15 -8 -27 -8 -15 0 -18 3 -9 8 17 11 43 11 36 0z m-281 -34 c-27 -20 -39
-17 -18 6 10 11 22 17 27 14 5 -3 1 -12 -9 -20z m1054 -6 c-3 -8 -6 -5 -6 6
-1 11 2 17 5 13 3 -3 4 -12 1 -19z m-1037 -18 c12 -8 12 -10 -3 -14 -49 -16
-48 -16 -37 4 12 22 18 24 40 10z m1262 -17 c8 -10 19 -25 23 -33 7 -12 5 -12
-11 1 -10 9 -27 19 -37 22 -10 4 -15 11 -12 17 9 15 20 12 37 -7z m-1257 -37
c15 -8 22 -17 16 -20 -11 -7 -51 14 -51 26 0 11 4 10 35 -6z m1070 -6 c-3 -5
1 -10 9 -10 8 0 17 -4 20 -9 3 -4 -6 -6 -19 -3 -25 4 -31 13 -18 25 10 10 15
8 8 -3z m205 -49 c0 -5 -7 -12 -16 -15 -14 -5 -15 -4 -4 9 14 17 20 19 20 6z
m-1230 -21 c0 -5 -5 -10 -10 -10 -7 0 -7 -6 0 -19 7 -14 7 -22 0 -26 -8 -5 -8
-11 -1 -19 8 -9 6 -13 -4 -13 -20 0 -32 46 -15 57 6 4 11 10 11 14 -3 18 0 26
9 26 6 0 10 -4 10 -10z m1058 -30 l23 -29 -21 -21 c-23 -23 -25 -20 -34 43 -6
44 1 46 32 7z m119 9 c13 -13 6 -39 -11 -39 -7 0 -21 7 -32 15 -16 13 -17 16
-4 25 20 13 33 13 47 -1z m-729 -44 c-3 -3 -9 2 -12 12 -6 14 -5 15 5 6 7 -7
10 -15 7 -18z m545 -35 c5 -18 3 -18 -30 -2 -28 14 -31 17 -16 23 24 8 40 1
46 -21z m-953 -42 c0 -7 -11 -14 -25 -14 -21 -2 -24 1 -14 12 14 17 39 18 39
2z m1150 8 c0 -3 -4 -8 -10 -11 -5 -3 -10 -1 -10 4 0 6 5 11 10 11 6 0 10 -2
10 -4z m-1220 -31 c0 -8 -4 -15 -10 -15 -5 0 -7 7 -4 15 4 8 8 15 10 15 2 0 4
-7 4 -15z m1025 -5 c3 -6 -1 -13 -10 -16 -19 -8 -30 0 -20 15 8 14 22 14 30 1z
m273 -13 c27 -13 28 -23 2 -23 -14 0 -19 5 -15 15 5 12 2 12 -12 -1 -17 -16
-19 -15 -29 6 -10 21 -9 23 10 19 12 -3 31 -10 44 -16z m-328 9 c0 -2 -9 -6
-20 -9 -11 -3 -18 -1 -14 4 5 9 34 13 34 5z m-1072 -28 c19 -19 14 -29 -13
-24 -14 3 -31 -1 -37 -7 -23 -22 -63 -34 -83 -27 -17 7 -18 9 -4 14 9 4 29 8
45 9 16 1 29 8 29 15 0 14 23 32 41 32 5 0 15 -5 22 -12z m1145 -14 c-4 -11
-8 -12 -20 -3 -11 10 -11 14 -1 20 17 10 28 2 21 -17z m117 -29 c7 -8 18 -15
25 -15 10 0 35 -40 35 -56 0 -2 -13 2 -30 11 -36 19 -41 19 -34 0 4 -9 1 -15
-7 -15 -14 0 -41 68 -33 82 8 13 31 9 44 -7z m-73 -11 c-3 -3 -12 -4 -19 -1
-8 3 -5 6 6 6 11 1 17 -2 13 -5z m-1177 -24 c0 -5 -4 -10 -10 -10 -5 0 -10 5
-10 10 0 6 5 10 10 10 6 0 10 -4 10 -10z m105 -59 c-8 -8 -21 -11 -31 -7 -16
6 -16 8 1 26 13 15 20 16 30 7 11 -10 11 -14 0 -26z m1165 -6 c0 -8 -2 -15 -4
-15 -2 0 -6 7 -10 15 -3 8 -1 15 4 15 6 0 10 -7 10 -15z m-380 -11 c0 -8 -19
-13 -24 -6 -3 5 1 9 9 9 8 0 15 -2 15 -3z m-4 -50 c-3 -8 0 -14 6 -14 6 0 9
-3 6 -6 -4 -3 -1 -20 6 -37 6 -18 11 -46 11 -64 -1 -28 3 -32 35 -37 57 -9 75
-38 71 -117 -1 -14 -7 -33 -14 -43 -12 -17 -18 -15 -83 27 -38 24 -99 56 -136
71 -37 15 -83 36 -102 47 -34 20 -55 49 -35 49 6 0 9 6 6 14 -8 20 9 25 65 18
34 -3 51 0 62 11 21 21 20 33 -5 51 l-21 14 27 29 27 28 -17 -27 c-10 -16 -13
-28 -8 -28 5 0 16 11 23 25 11 21 16 23 28 12 13 -10 15 -9 9 6 -6 16 -5 16
19 1 14 -10 23 -23 20 -30z m-616 -29 c-14 -17 -30 -20 -30 -4 0 5 4 8 9 4 5
-3 12 -1 16 5 3 5 9 10 12 10 3 0 0 -7 -7 -15z m908 8 c-42 -6 -30 -53 14 -53
21 0 22 -4 8 -31 -10 -18 -13 -18 -33 -4 -33 23 -45 19 -43 -17 3 -32 -6 -45
-47 -69 -17 -10 -18 -7 -12 48 13 124 13 124 45 118 16 -3 32 -1 35 5 3 5 18
9 33 9 l27 -2 -27 -4z m-1113 -23 c-3 -5 -11 -10 -16 -10 -6 0 -7 5 -4 10 3 6
11 10 16 10 6 0 7 -4 4 -10z m945 -16 c0 -11 6 -15 20 -11 16 4 20 0 20 -23 0
-15 -6 -32 -12 -37 -21 -15 -93 -16 -106 -1 -9 11 -5 14 20 16 17 1 37 -3 44
-9 19 -16 18 0 -2 22 -10 11 -13 25 -9 38 8 25 25 28 25 5z m-700 -15 c0 -5
-13 -9 -30 -9 -18 0 -30 5 -30 13 0 9 10 12 30 9 17 -2 30 -8 30 -13z m-105 1
c3 -5 -1 -10 -10 -10 -9 0 -13 5 -10 10 3 6 8 10 10 10 2 0 7 -4 10 -10z
m1035 -40 c-24 -15 -36 -11 -14 4 10 8 21 12 24 10 2 -3 -2 -9 -10 -14z m94 4
c3 -8 2 -12 -4 -9 -6 3 -10 10 -10 16 0 14 7 11 14 -7z m-63 -33 c-10 -18 -14
-19 -32 -8 -19 12 -19 12 8 24 34 14 38 11 24 -16z m44 9 c-3 -5 -11 -10 -16
-10 -6 0 -7 5 -4 10 3 6 11 10 16 10 6 0 7 -4 4 -10z m-110 -64 c-32 -26 -50
-25 -36 2 4 9 6 23 4 30 -3 6 -1 12 4 12 5 0 15 -6 22 -12 10 -11 11 -9 5 7
-7 19 -6 19 12 2 18 -17 18 -18 -11 -41z m-58 -22 c-9 -10 -38 16 -31 28 4 6
13 4 22 -6 9 -8 13 -19 9 -22z m-57 -34 c-6 -10 -10 -28 -10 -40 0 -28 -24
-21 -28 8 -5 29 15 62 33 56 11 -5 12 -11 5 -24z m-300 -157 c0 -7 -39 17 -46
28 -3 6 5 3 20 -6 14 -10 26 -19 26 -22z"/>
<path d="M1305 1100 c-3 -5 1 -10 9 -13 20 -8 49 -2 54 11 4 12 -56 14 -63 2z"/>
<path d="M960 2110 c8 -5 10 -10 5 -10 -6 0 -11 -16 -11 -35 0 -19 5 -35 11
-35 6 0 7 -3 0 -8 -15 -11 -14 -72 1 -72 7 0 14 -5 16 -10 2 -6 9 -1 16 10 10
17 10 21 0 19 -27 -3 -39 1 -32 12 4 8 9 7 15 -2 7 -12 9 -11 9 1 0 11 3 11
12 2 18 -18 33 -15 18 3 -7 9 -19 14 -26 11 -22 -8 -26 35 -8 79 7 19 6 19
-12 5 -17 -14 -18 -14 -6 2 15 18 9 38 -11 38 -7 0 -6 -4 3 -10z"/>
<path d="M1065 2111 c-3 -5 -1 -12 4 -15 5 -3 11 1 15 9 6 16 -9 21 -19 6z"/>
<path d="M990 2101 c0 -5 5 -13 10 -16 6 -3 10 -2 10 4 0 5 -4 13 -10 16 -5 3
-10 2 -10 -4z"/>
<path d="M990 2060 c0 -5 5 -10 10 -10 6 0 10 5 10 10 0 6 -4 10 -10 10 -5 0
-10 -4 -10 -10z"/>
<path d="M1175 2040 c-24 -27 -8 -47 24 -31 17 10 19 15 11 31 -13 25 -13 25
-35 0z m29 -6 c3 -8 2 -12 -4 -9 -6 3 -10 10 -10 16 0 14 7 11 14 -7z"/>
<path d="M1132 2010 c-8 -13 -5 -19 9 -29 31 -19 49 0 23 25 -19 19 -22 19
-32 4z"/>
<path d="M1239 2016 c9 -11 9 -15 -1 -19 -7 -3 -8 -6 -2 -6 5 -1 19 6 30 15
10 8 14 13 7 10 -6 -4 -14 -2 -18 4 -3 5 -11 10 -17 10 -7 0 -7 -5 1 -14z"/>
<path d="M1290 2019 c0 -5 5 -7 10 -4 6 3 10 8 10 11 0 2 -4 4 -10 4 -5 0 -10
-5 -10 -11z"/>
<path d="M1000 1940 c-6 -11 -9 -24 -6 -29 3 -4 -1 -8 -8 -8 -7 0 -13 7 -12
15 1 8 -6 17 -14 19 -13 4 -13 3 0 -6 8 -6 10 -11 4 -11 -6 0 -11 -7 -11 -16
0 -10 7 -14 19 -11 10 3 21 1 24 -4 3 -5 10 -7 15 -3 5 3 18 0 27 -8 15 -11
16 -11 6 2 -15 22 -12 55 6 52 10 -1 9 2 -4 13 -26 20 -33 19 -46 -5z m26 -14
c0 -14 -5 -21 -9 -17 -4 4 -5 15 -1 24 9 24 12 21 10 -7z"/>
<path d="M2035 1230 c-13 -6 -15 -9 -5 -9 8 0 22 4 30 9 18 12 2 12 -25 0z"/>
<path d="M384 1114 c-18 -14 -18 -14 6 -3 31 14 36 19 24 19 -6 0 -19 -7 -30
-16z"/>
<path d="M2141 544 c0 -11 3 -14 6 -6 3 7 2 16 -1 19 -3 4 -6 -2 -5 -13z"/>
<path d="M2141 504 c0 -11 3 -14 6 -6 3 7 2 16 -1 19 -3 4 -6 -2 -5 -13z"/>
<path d="M2141 304 c0 -11 3 -14 6 -6 3 7 2 16 -1 19 -3 4 -6 -2 -5 -13z"/>
</g>
</svg>
