<svg xmlns="http://www.w3.org/2000/svg" width="663" height="432.724" viewBox="0 0 663 432.724">
  <g id="Group_5" data-name="Group 5" transform="translate(-693 -560)">
    <g id="Group_4" data-name="Group 4" transform="translate(693 578)">
      <g id="Path_8" data-name="Path 8" fill="none">
        <path d="M221.825,0C99.314,0,0,82.268,0,183.75,0,256.169,50.575,318.8,124.41,348.858c15.361,6.253,12.165,62.558,29.583,65.752,15.334,2.812,51.292-47.11,67.832-47.11,122.51,0,221.825-82.268,221.825-183.75S344.335,0,221.825,0Z" stroke="none"/>
        <path d="M 221.8245697021484 28.99996948242188 C 115.500732421875 28.99996948242188 29 98.420654296875 29 183.7502288818359 C 29 242.3241424560547 69.7484130859375 295.2975463867188 135.3435668945313 321.9982299804688 C 156.1245422363281 330.4573974609375 161.5349731445313 352.5174865722656 165.8757629394531 372.5810852050781 C 166.8628234863281 371.6626281738281 167.7972717285156 370.7886352539063 168.6504821777344 369.9906311035156 C 186.7167358398438 353.0933837890625 202.3193206787109 338.5003967285156 221.8245697021484 338.5003967285156 C 328.1484069824219 338.5003967285156 414.6491394042969 269.0797119140625 414.6491394042969 183.7502288818359 C 414.6491394042969 98.420654296875 328.1484069824219 28.99996948242188 221.8245697021484 28.99996948242188 M 221.8245697021484 -3.0517578125e-05 C 344.3348999023438 -3.0517578125e-05 443.6491394042969 82.26773071289063 443.6491394042969 183.7502288818359 C 443.6491394042969 285.2326354980469 344.3348999023438 367.5003967285156 221.8245697021484 367.5003967285156 C 205.7369995117188 367.5003967285156 171.2806701660156 414.7244873046875 155.2982482910156 414.7244873046875 C 154.8489685058594 414.7244873046875 154.4117736816406 414.6868591308594 153.9924926757813 414.6099853515625 C 136.5747375488281 411.4157409667969 139.7709045410156 355.1110534667969 124.409912109375 348.858154296875 C 50.5750732421875 318.8035583496094 0 256.1693115234375 0 183.7502288818359 C 0 82.26773071289063 99.31423950195313 -3.0517578125e-05 221.8245697021484 -3.0517578125e-05 Z" stroke="none" fill="#222"/>
      </g>
      <circle id="Ellipse_1" data-name="Ellipse 1" cx="24" cy="24" r="24" transform="translate(276 159)" fill="#222"/>
      <circle id="Ellipse_1-2" data-name="Ellipse 1" cx="24" cy="24" r="24" transform="translate(198 159)" fill="#464646"/>
      <ellipse id="Ellipse_1-3" data-name="Ellipse 1" cx="24.5" cy="24" rx="24.5" ry="24" transform="translate(119 159)" fill="#222"/>
    </g>
    <g id="Group_3" data-name="Group 3">
      <g id="Path_8-2" data-name="Path 8" transform="translate(954 560)" fill="#222">
        <path d="M 258.5061340332031 359.0408630371094 C 253.4265441894531 355.3523254394531 246.0401611328125 348.4438781738281 241.1370697021484 343.8580322265625 C 226.5889282226563 330.251220703125 214.0247344970703 318.5000305175781 201 318.5000305175781 C 98.16353607177734 318.5000305175781 14.5 250.3130950927734 14.5 166.4999694824219 C 14.5 82.68690490722656 98.16353607177734 14.50003528594971 201 14.50003528594971 C 303.8364562988281 14.50003528594971 387.5 82.68690490722656 387.5 166.4999694824219 C 387.5 224.4613647460938 347.7655334472656 276.6416931152344 283.8027954101563 302.6779174804688 C 270.0544128417969 308.2743835449219 266.5238037109375 324.6807556152344 262.7858581542969 342.0505065917969 C 261.7236633300781 346.9863891601563 260.1447448730469 354.3231811523438 258.5061340332031 359.0408630371094 Z" stroke="none"/>
        <path d="M 201 28.99993896484375 C 106.1588439941406 28.99993896484375 29 90.6822509765625 29 166.5000305175781 C 29 242.3177947998047 106.1588439941406 304.0000305175781 201 304.0000305175781 C 219.3860931396484 304.0000305175781 233.6882629394531 317.0440063476563 250.0702819824219 332.359619140625 C 253.9447784423828 315.43310546875 259.9413452148438 296.7357788085938 278.3360595703125 289.2478637695313 C 336.7269287109375 265.479736328125 373 218.4454956054688 373 166.5000305175781 C 373 90.6822509765625 295.8411560058594 28.99993896484375 201 28.99993896484375 M 201 -6.103515625e-05 C 312.0092163085938 -6.103515625e-05 402 74.5445556640625 402 166.5000305175781 C 402 232.1205749511719 356.1728515625 288.8747253417969 289.26953125 316.1078796386719 C 275.3506164550781 321.7738037109375 278.2467041015625 372.7926330566406 262.4640808105469 375.6870422363281 C 262.0841674804688 375.7567138671875 261.6880493164063 375.790771484375 261.2809448242188 375.790771484375 C 246.7989196777344 375.790771484375 215.5772705078125 333.0000305175781 201 333.0000305175781 C 89.99078369140625 333.0000305175781 0 258.4554138183594 0 166.5000305175781 C 0 74.5445556640625 89.99078369140625 -6.103515625e-05 201 -6.103515625e-05 Z" stroke="none" fill="#222"/>
      </g>
      <g id="Ellipse_1-4" data-name="Ellipse 1" transform="translate(1062 704)" fill="#fff" stroke="#707070" stroke-width="1">
        <circle cx="22" cy="22" r="22" stroke="none"/>
        <circle cx="22" cy="22" r="21.5" fill="none"/>
      </g>
      <g id="Ellipse_1-5" data-name="Ellipse 1" transform="translate(1133 704)" fill="#fff" stroke="#707070" stroke-width="1">
        <circle cx="22" cy="22" r="22" stroke="none"/>
        <circle cx="22" cy="22" r="21.5" fill="none"/>
      </g>
      <g id="Ellipse_1-6" data-name="Ellipse 1" transform="translate(1204 704)" fill="#fff" stroke="#707070" stroke-width="1">
        <circle cx="22" cy="22" r="22" stroke="none"/>
        <circle cx="22" cy="22" r="21.5" fill="none"/>
      </g>
    </g>
  </g>
</svg>
